<?xml version="1.0" standalone="no"?><!DOCTYPE svg PUBLIC "-//W3C//DTD SVG 1.1//EN" "http://www.w3.org/Graphics/SVG/1.1/DTD/svg11.dtd"><svg t="1565589046134" class="icon" viewBox="0 0 1024 1024" version="1.1" xmlns="http://www.w3.org/2000/svg" p-id="1115" xmlns:xlink="http://www.w3.org/1999/xlink" width="200" height="200"><defs><style type="text/css"></style></defs><path d="M509.927126 0c-215.578947 0-397.991903 132.663968-476.761134 323.368421h949.376518c-70.477733-190.704453-257.036437-323.368421-472.615384-323.368421z" fill="" p-id="1116"></path><path d="M29.020243 675.757085c66.331984 203.1417 261.182186 348.242915 485.052631 348.242915 223.870445 0 414.574899-145.101215 485.052632-348.242915h-970.105263z" fill="#FFCE00" p-id="1117"></path><path d="M1024 514.072874c0-66.331984-12.437247-132.663968-37.311741-190.704453h-949.376518c-24.874494 58.040486-37.311741 124.37247-37.311741 190.704453 0 58.040486 8.291498 111.935223 29.020243 161.684211H994.979757c20.728745-49.748988 29.020243-107.789474 29.020243-161.684211z" fill="#DD0000" p-id="1118"></path></svg>