<?xml version="1.0" standalone="no"?><!DOCTYPE svg PUBLIC "-//W3C//DTD SVG 1.1//EN" "http://www.w3.org/Graphics/SVG/1.1/DTD/svg11.dtd"><svg t="1567341086799" class="icon" viewBox="0 0 1024 1024" version="1.1" xmlns="http://www.w3.org/2000/svg" p-id="2721" xmlns:xlink="http://www.w3.org/1999/xlink" width="200" height="200"><defs><style type="text/css"></style></defs><path d="M936.378 883.405l0.132-0.288-247.992-249.094c48.824-59.145 76.898-132.65 79.2-207.522 4.591-91.188-30.124-185.383-92.828-251.912-53.56-58.066-128.875-97.096-206.551-107.118-15.08-2.11-30.52-3.164-45.9-3.164-76.874 0-151.794 25.676-210.938 72.235C142.946 189.046 95.621 267.85 81.655 352.72c-13.857 79.104 1.138 163.973 41.115 232.78 27.343 47.828 66.279 88.92 112.573 118.816 42.495 27.62 91.39 45.672 141.33 52.121 14.984 2.085 30.352 3.14 45.67 3.14 70.918 0 141.078-22.272 198.173-62.79l247.68 248.904 4.58 4.337 0.132-0.119c8.163 6.737 18.508 10.477 29.224 10.477 25.318 0 45.912-20.762 45.912-46.271-0.001-11.314-4.21-22.246-11.666-30.71m-251.383-339.74c-40.576 83.335-122.138 144.277-212.917 159.045-42.495 7.432-87.28 5.131-129.006-6.616-81.417-22.44-151.11-81.85-186.485-159.022-40.948-85.686-35.842-193.606 13.018-274.975 43.49-75.184 120.148-128 204.97-141.233l6.017-0.913c3.165-0.527 6.353-1.03 9.47-1.39a304.309 304.309 0 0 1 31.683-1.653c43.321 0 86.116 9.374 123.827 27.14 68.999 31.79 124.008 90.862 150.894 162.114 29.489 76.094 25.222 164.86-11.471 237.502" p-id="2722"></path></svg>