<?xml version="1.0" standalone="no"?><!DOCTYPE svg PUBLIC "-//W3C//DTD SVG 1.1//EN" "http://www.w3.org/Graphics/SVG/1.1/DTD/svg11.dtd"><svg t="1566994883713" class="icon" viewBox="0 0 1024 1024" version="1.1" xmlns="http://www.w3.org/2000/svg" p-id="1701" xmlns:xlink="http://www.w3.org/1999/xlink" width="200" height="200"><defs><style type="text/css"></style></defs><path d="M310.6304 65.16736a191.232 191.232 0 0 0-118.62016-41.18528C85.9648 23.98208 0 109.94688 0 215.99232c0 44.81024 15.48288 85.9648 41.22624 118.59968A513.6384 513.6384 0 0 1 310.6304 65.16736zM704 487.99744H560.0256V279.99232a47.98464 47.98464 0 0 0-48.00512-48.00512 47.99488 47.99488 0 0 0-48.00512 48.00512v256.03072c0 26.5216 21.504 47.99488 48.00512 47.99488h192.02048a47.9744 47.9744 0 0 0 47.9744-48.0256 48.00512 48.00512 0 0 0-48.01536-47.99488zM836.00384 24.00256a186.9824 186.9824 0 0 0-116.09088 40.33536A502.82496 502.82496 0 0 1 983.68512 328.0896c25.18016-31.98976 40.35584-72.22272 40.32512-116.09088C1024 108.14464 939.84768 24.00256 836.00384 24.00256z" p-id="1702"></path><path d="M512.04096 72.00768c-256.256 0-464.00512 207.75936-464.00512 464.01536 0 123.05408 48.24064 234.63936 126.43328 317.72672l-64.4096 64.34816a47.84128 47.84128 0 0 0-14.05952 33.92512 48.01536 48.01536 0 0 0 81.95072 33.9456l69.21216-69.25312c75.13088 52.36736 166.31808 83.3024 264.83712 83.3024 98.7136 0 190.07488-31.04768 265.29792-83.57888l69.71392 69.70368a47.49312 47.49312 0 0 0 81.01888-33.59744 47.2064 47.2064 0 0 0-13.93664-33.52576l-64.90112-64.91136c78.41792-83.0464 126.85312-194.816 126.85312-318.0544-0.01024-256.256-207.81056-464.03584-464.00512-464.04608z m-0.02048 832c-203.25376 0-368.00512-164.7616-368.00512-367.99488 0-203.27424 164.75136-368.00512 368.00512-368.00512 203.24352 0 368.00512 164.73088 368.00512 368.00512 0 203.23328-164.7616 367.99488-368.00512 367.99488z" p-id="1703"></path></svg>